<mxfile host="app.diagrams.net" modified="2022-09-16T07:48:19.631Z" agent="5.0 (X11; Linux x86_64) AppleWebKit/537.36 (KHTML, like Gecko) Chrome/103.0.0.0 Safari/537.36" etag="58TNl4IMIvILxawjSn_l" version="20.2.8" type="github">
  <diagram id="C5RBs43oDa-KdzZeNtuy" name="Page-1">
    <mxGraphModel dx="1822" dy="668" grid="0" gridSize="10" guides="1" tooltips="1" connect="1" arrows="1" fold="1" page="0" pageScale="1" pageWidth="827" pageHeight="1169" math="0" shadow="0">
      <root>
        <mxCell id="WIyWlLk6GJQsqaUBKTNV-0" />
        <mxCell id="WIyWlLk6GJQsqaUBKTNV-1" parent="WIyWlLk6GJQsqaUBKTNV-0" />
        <mxCell id="jcrsmd48hvokRtX5_SHv-19" style="edgeStyle=orthogonalEdgeStyle;rounded=0;orthogonalLoop=1;jettySize=auto;html=1;entryX=0.75;entryY=0;entryDx=0;entryDy=0;" edge="1" parent="WIyWlLk6GJQsqaUBKTNV-1" source="jcrsmd48hvokRtX5_SHv-0" target="jcrsmd48hvokRtX5_SHv-2">
          <mxGeometry relative="1" as="geometry" />
        </mxCell>
        <mxCell id="jcrsmd48hvokRtX5_SHv-0" value="MongoDB" style="whiteSpace=wrap;html=1;aspect=fixed;" vertex="1" parent="WIyWlLk6GJQsqaUBKTNV-1">
          <mxGeometry x="-115.5" y="3" width="133" height="133" as="geometry" />
        </mxCell>
        <mxCell id="jcrsmd48hvokRtX5_SHv-14" value="" style="edgeStyle=orthogonalEdgeStyle;rounded=0;orthogonalLoop=1;jettySize=auto;html=1;" edge="1" parent="WIyWlLk6GJQsqaUBKTNV-1" source="jcrsmd48hvokRtX5_SHv-1" target="jcrsmd48hvokRtX5_SHv-2">
          <mxGeometry relative="1" as="geometry" />
        </mxCell>
        <mxCell id="jcrsmd48hvokRtX5_SHv-15" style="edgeStyle=orthogonalEdgeStyle;rounded=0;orthogonalLoop=1;jettySize=auto;html=1;exitX=0.5;exitY=0;exitDx=0;exitDy=0;" edge="1" parent="WIyWlLk6GJQsqaUBKTNV-1" source="jcrsmd48hvokRtX5_SHv-2" target="jcrsmd48hvokRtX5_SHv-0">
          <mxGeometry relative="1" as="geometry" />
        </mxCell>
        <mxCell id="jcrsmd48hvokRtX5_SHv-16" value="FindUser" style="edgeLabel;html=1;align=center;verticalAlign=middle;resizable=0;points=[];" vertex="1" connectable="0" parent="jcrsmd48hvokRtX5_SHv-15">
          <mxGeometry x="0.302" y="1" relative="1" as="geometry">
            <mxPoint as="offset" />
          </mxGeometry>
        </mxCell>
        <mxCell id="jcrsmd48hvokRtX5_SHv-1" value="LogIn" style="rounded=0;whiteSpace=wrap;html=1;" vertex="1" parent="WIyWlLk6GJQsqaUBKTNV-1">
          <mxGeometry x="-109" y="236" width="120" height="60" as="geometry" />
        </mxCell>
        <mxCell id="jcrsmd48hvokRtX5_SHv-20" style="edgeStyle=orthogonalEdgeStyle;rounded=0;orthogonalLoop=1;jettySize=auto;html=1;" edge="1" parent="WIyWlLk6GJQsqaUBKTNV-1" source="jcrsmd48hvokRtX5_SHv-2" target="jcrsmd48hvokRtX5_SHv-5">
          <mxGeometry relative="1" as="geometry">
            <mxPoint x="-375" y="277" as="targetPoint" />
            <Array as="points">
              <mxPoint x="97" y="345" />
              <mxPoint x="-366" y="345" />
              <mxPoint x="-366" y="277" />
            </Array>
          </mxGeometry>
        </mxCell>
        <mxCell id="jcrsmd48hvokRtX5_SHv-22" value="Token" style="edgeLabel;html=1;align=center;verticalAlign=middle;resizable=0;points=[];" vertex="1" connectable="0" parent="jcrsmd48hvokRtX5_SHv-20">
          <mxGeometry x="0.0132" y="-2" relative="1" as="geometry">
            <mxPoint as="offset" />
          </mxGeometry>
        </mxCell>
        <mxCell id="jcrsmd48hvokRtX5_SHv-23" style="edgeStyle=orthogonalEdgeStyle;rounded=0;orthogonalLoop=1;jettySize=auto;html=1;" edge="1" parent="WIyWlLk6GJQsqaUBKTNV-1" source="jcrsmd48hvokRtX5_SHv-2" target="jcrsmd48hvokRtX5_SHv-0">
          <mxGeometry relative="1" as="geometry">
            <mxPoint x="206" y="26" as="targetPoint" />
            <Array as="points">
              <mxPoint x="195" y="266" />
              <mxPoint x="195" y="26" />
            </Array>
          </mxGeometry>
        </mxCell>
        <mxCell id="jcrsmd48hvokRtX5_SHv-24" value="Token e userID" style="edgeLabel;html=1;align=center;verticalAlign=middle;resizable=0;points=[];" vertex="1" connectable="0" parent="jcrsmd48hvokRtX5_SHv-23">
          <mxGeometry x="-0.2687" y="-3" relative="1" as="geometry">
            <mxPoint as="offset" />
          </mxGeometry>
        </mxCell>
        <mxCell id="jcrsmd48hvokRtX5_SHv-2" value="Validar dados" style="rounded=0;whiteSpace=wrap;html=1;" vertex="1" parent="WIyWlLk6GJQsqaUBKTNV-1">
          <mxGeometry x="44" y="236" width="120" height="60" as="geometry" />
        </mxCell>
        <mxCell id="jcrsmd48hvokRtX5_SHv-8" style="edgeStyle=orthogonalEdgeStyle;rounded=0;orthogonalLoop=1;jettySize=auto;html=1;" edge="1" parent="WIyWlLk6GJQsqaUBKTNV-1" source="jcrsmd48hvokRtX5_SHv-5" target="jcrsmd48hvokRtX5_SHv-1">
          <mxGeometry relative="1" as="geometry" />
        </mxCell>
        <mxCell id="jcrsmd48hvokRtX5_SHv-9" value="Email e Senha" style="edgeLabel;html=1;align=center;verticalAlign=middle;resizable=0;points=[];" vertex="1" connectable="0" parent="jcrsmd48hvokRtX5_SHv-8">
          <mxGeometry x="-0.3368" relative="1" as="geometry">
            <mxPoint as="offset" />
          </mxGeometry>
        </mxCell>
        <mxCell id="jcrsmd48hvokRtX5_SHv-5" value="User" style="shape=umlActor;verticalLabelPosition=bottom;verticalAlign=top;html=1;outlineConnect=0;" vertex="1" parent="WIyWlLk6GJQsqaUBKTNV-1">
          <mxGeometry x="-344" y="236" width="30" height="60" as="geometry" />
        </mxCell>
      </root>
    </mxGraphModel>
  </diagram>
</mxfile>
